<?xml version="1.0" encoding="utf-8"?>
<!-- Generator: Adobe Illustrator 25.2.3, SVG Export Plug-In . SVG Version: 6.00 Build 0)  -->
<svg version="1.1" id="Layer_1" xmlns="http://www.w3.org/2000/svg" xmlns:xlink="http://www.w3.org/1999/xlink" x="0px" y="0px"
	 viewBox="0 0 410 401.6841736" style="enable-background:new 0 0 410 401.6841736;" xml:space="preserve">
<style type="text/css">
	.st0{clip-path:url(#SVGID_2_);fill:#009ED4;}
</style>
<g>
	<defs>
		<rect id="SVGID_1_" x="8.988616" y="10.642808" width="392.0227661" height="381.8181763"/>
	</defs>
	<clipPath id="SVGID_2_">
		<use xlink:href="#SVGID_1_"  style="overflow:visible;"/>
	</clipPath>
	<path class="st0" d="M254.3006744,128.0926514c0,0-13.3444824,77.3425446-23.8723145,104.677948
		c-10.5278015,27.3353882-36.9396973,48.2986755-61.9663696,45.9899292
		c-22.1176605-2.0316772-19.8551025-19.0239258-21.4712067-38.8790436
		c-1.6161194-19.8551025,3.463089-57.2565613,31.9990234-90.086731
		C209.7421265,114.3326111,254.3006744,128.0926514,254.3006744,128.0926514 M312.6192627,35.3739586
		C244.6501617-5.4905944,84.4241333-8.4919271,28.3219299,126.892128
		c-55.8713303,134.8761292,19.4395294,227.0869141,96.782074,253.4988403
		c77.3887024,26.4118652,153.1151123,1.200531,153.1151123,1.200531l-8.5422974-31.3526001
		c0,0-57.9029999,20.0397949-110.9576721,4.063385c-78.8201294-23.7799377-128.5040588-89.5788269-97.982605-197.8583679
		C92.3199997,44.4703674,213.34375,25.4464245,278.2191162,56.6142998
		c53.4240723,25.7192879,93.8269043,76.696106,78.9586487,154.0847931
		c-14.1755981,73.7409363-59.0112,81.0365295-78.1736755,74.7567749
		c-15.3761597-5.0792236-9.3272705-31.3987732-9.3272705-31.3987732s4.063385-17.82341,10.527832-48.6219025
		c6.5106201-30.7523041,21.8867798-93.5036697,21.8867798-93.5036697s-7.0185547-7.2032242-43.3118286-15.7917252
		c-39.294632-9.3272705-107.5869293,6.141243-137.5081024,71.108963
		c-29.3670807,63.7210083-19.6242142,134.1373749,28.1203613,145.0345917
		c46.5902252,10.6201477,86.6698303-34.3539734,86.6698303-34.3539734s0.4155579,34.8618774,39.3407745,41.1878052
		c45.389679,7.3417664,99.3678589-20.085968,115.3904724-76.4190674
		C428.0558777,111.5159683,354.7305298,60.677681,312.6192627,35.3739586"/>
</g>
</svg>
