<?xml version="1.0" encoding="utf-8"?>
<!-- Generator: Adobe Illustrator 25.2.3, SVG Export Plug-In . SVG Version: 6.00 Build 0)  -->
<svg version="1.1" id="Layer_1" xmlns="http://www.w3.org/2000/svg" xmlns:xlink="http://www.w3.org/1999/xlink" x="0px" y="0px"
	 viewBox="0 0 410 493.9676514" style="enable-background:new 0 0 410 493.9676514;" xml:space="preserve">
<style type="text/css">
	.st0{clip-path:url(#SVGID_2_);fill:#009ED4;}
</style>
<g>
	<defs>
		<rect id="SVGID_1_" x="9.8668003" y="14.4034367" width="391.1332092" height="465.1607666"/>
	</defs>
	<clipPath id="SVGID_2_">
		<use xlink:href="#SVGID_1_"  style="overflow:visible;"/>
	</clipPath>
	<path class="st0" d="M149.8229828,295.8061218c-74.6802826-99.1022949-61.8437576-117.3780212-51.7268372-134.2395477
		c10.1169205-16.861557,28.8821716-5.4936218,49.0072174-20.6689911
		c20.0706787-15.1209793,27.794342-30.6227264-10.5520477-81.5336761
		C97.7153931,7.8002491,78.4606094,8.1809921,58.4443436,23.247612
		C38.4824638,38.3141785,12.9725885,67.5227203,9.9810228,132.9563599
		c-2.9371653,65.4336243,48.5177116,142.5615234,90.7259369,198.5853271
		c42.2626114,56.0238037,102.2026443,126.7878723,165.9501038,141.9632568
		c63.6930847,15.2297668,98.7759705-1.2510376,118.7922363-16.317627
		c20.0162659-15.1210022,25.6186523-33.5054932-13.2172546-85.0147705
		c-38.346405-50.9109497-55.3710938-47.7561951-75.441803-32.6352234
		c-20.1250305,15.1210022-14.4138794,36.3338928-33.396698,41.3923645
		c-18.9828186,5.0584412-40.0869293,12.4013672-114.7672119-86.7009277"/>
</g>
</svg>
